<?xml version="1.0" standalone="no"?>
<!DOCTYPE svg PUBLIC "-//W3C//DTD SVG 1.1//EN" "http://www.w3.org/Graphics/SVG/1.1/DTD/svg11.dtd">
<svg xmlns="http://www.w3.org/2000/svg" version="1.1" width="128.0" height="128.0">

	<metadata>
		<rdf:RDF xmlns:rdf = "http://www.w3.org/1999/02/22-rdf-syntax-ns#" xmlns:rdfs = "http://www.w3.org/2000/01/rdf-schema#" xmlns:dc = "http://purl.org/dc/elements/1.1/">
			<rdf:Description rdf:about="http://likethought.com/opacity/">
				<dc:title>New Image</dc:title>
				<dc:creator>Michael Sweet</dc:creator>
				<dc:rights>Copyright 2020 Michael Sweet</dc:rights>
				<dc:description></dc:description>
				<dc:format>image/svg+xml</dc:format>
				<dc:language>en</dc:language>
			</rdf:Description>
		</rdf:RDF>
	</metadata>
	<g>
		<title>Background</title>
		<rect x="0.0" y="0.0" width="128.0" height="128.0" rx="16.0" ry="16.0" fill="rgb(0%, 48.24%, 100%)" stroke="none" />
	</g>

	<g>
		<title>Logo</title>
		<path d="M 95.944 45.505 L 104.92 45.505 C 104.304 40.577 102.83 36.221 100.498 32.437 C 98.166 28.653 95.262 25.463 91.786 22.867 C 88.31 20.271 84.438 18.313 80.17 16.993 C 75.902 15.673 71.524 15.013 67.036 15.013 C 59.644 15.013 53.154 16.355 47.566 19.039 C 41.978 21.723 37.336 25.331 33.64 29.863 C 29.944 34.395 27.172 39.609 25.324 45.505 C 23.476 51.401 22.552 57.605 22.552 64.117 C 22.552 70.629 23.476 76.833 25.324 82.729 C 27.172 88.625 29.944 93.817 33.64 98.305 C 37.336 102.793 41.978 106.379 47.566 109.063 C 53.154 111.747 59.644 113.089 67.036 113.089 C 72.58 113.089 77.618 112.209 82.15 110.449 C 86.682 108.689 90.62 106.181 93.964 102.925 C 97.308 99.669 100.036 95.709 102.148 91.045 C 104.26 86.381 105.624 81.145 106.24 75.337 L 97.264 75.337 C 96.824 79.561 95.812 83.499 94.228 87.151 C 92.644 90.803 90.576 93.993 88.024 96.721 C 85.472 99.449 82.436 101.605 78.916 103.189 C 75.396 104.773 71.436 105.565 67.036 105.565 C 60.788 105.565 55.42 104.377 50.932 102.0 C 46.444 99.625 42.77 96.479 39.91 92.563 C 37.05 88.647 34.938 84.203 33.574 79.231 C 32.21 74.259 31.528 69.221 31.528 64.117 C 31.528 58.925 32.21 53.865 33.574 48.937 C 34.938 44.009 37.05 39.587 39.91 35.671 C 42.77 31.755 46.444 28.609 50.932 26.233 C 55.42 23.857 60.788 22.669 67.036 22.669 C 70.468 22.669 73.746 23.175 76.87 24.187 C 79.994 25.199 82.854 26.673 85.45 28.609 C 88.046 30.545 90.246 32.943 92.05 35.803 C 93.854 38.663 95.152 41.897 95.944 45.505 L 95.944 45.505 Z M 110.464 111.241" fill="rgb(100%, 100%, 100%)" stroke="none" />
		<path d="M 95.944 45.505 L 104.92 45.505 C 104.304 40.577 102.83 36.221 100.498 32.437 C 98.166 28.653 95.262 25.463 91.786 22.867 C 88.31 20.271 84.438 18.313 80.17 16.993 C 75.902 15.673 71.524 15.013 67.036 15.013 C 59.644 15.013 53.154 16.355 47.566 19.039 C 41.978 21.723 37.336 25.331 33.64 29.863 C 29.944 34.395 27.172 39.609 25.324 45.505 C 23.476 51.401 22.552 57.605 22.552 64.117 C 22.552 70.629 23.476 76.833 25.324 82.729 C 27.172 88.625 29.944 93.817 33.64 98.305 C 37.336 102.793 41.978 106.379 47.566 109.063 C 53.154 111.747 59.644 113.089 67.036 113.089 C 72.58 113.089 77.618 112.209 82.15 110.449 C 86.682 108.689 90.62 106.181 93.964 102.925 C 97.308 99.669 100.036 95.709 102.148 91.045 C 104.26 86.381 105.624 81.145 106.24 75.337 L 97.264 75.337 C 96.824 79.561 95.812 83.499 94.228 87.151 C 92.644 90.803 90.576 93.993 88.024 96.721 C 85.472 99.449 82.436 101.605 78.916 103.189 C 75.396 104.773 71.436 105.565 67.036 105.565 C 60.788 105.565 55.42 104.377 50.932 102.0 C 46.444 99.625 42.77 96.479 39.91 92.563 C 37.05 88.647 34.938 84.203 33.574 79.231 C 32.21 74.259 31.528 69.221 31.528 64.117 C 31.528 58.925 32.21 53.865 33.574 48.937 C 34.938 44.009 37.05 39.587 39.91 35.671 C 42.77 31.755 46.444 28.609 50.932 26.233 C 55.42 23.857 60.788 22.669 67.036 22.669 C 70.468 22.669 73.746 23.175 76.87 24.187 C 79.994 25.199 82.854 26.673 85.45 28.609 C 88.046 30.545 90.246 32.943 92.05 35.803 C 93.854 38.663 95.152 41.897 95.944 45.505 L 95.944 45.505 Z M 110.464 111.241" stroke="rgb(100%, 100%, 100%)" stroke-width="1.0" stroke-linecap="square" stroke-linejoin="miter" fill="none" />
	</g>

	<g>
		<title>Printer</title>
		<rect x="48.719" y="52.2" width="30.8" height="25.2" rx="2.0" ry="2.0" fill="rgb(100%, 100%, 100%)" stroke="none" />
		<rect x="48.719" y="52.2" width="30.8" height="25.2" rx="2.0" ry="2.0" stroke="rgb(100%, 100%, 100%)" stroke-width="1.0" stroke-linecap="square" stroke-linejoin="miter" fill="none" />
		<path d="M 48.9 54.049 C 49.309 54.085 49.095 52.0 49.1 50.5 C 49.345 48.369 59.815 46.585 59.815 46.585 L 59.815 52.185 L 73.815 49.385" fill="rgb(100%, 100%, 100%)" stroke="none" />
		<path d="M 48.9 54.049 C 49.309 54.085 49.095 52.0 49.1 50.5 C 49.345 48.369 59.815 46.585 59.815 46.585 L 59.815 52.185 L 73.815 49.385" stroke="rgb(100%, 100%, 100%)" stroke-width="1.0" stroke-linecap="square" stroke-linejoin="miter" fill="none" />
		<rect x="48.6" y="52.2" width="16.8" height="8.4" rx="2.0" ry="2.0" stroke="rgb(0%, 48.24%, 100%)" stroke-width="1.0" stroke-linecap="square" stroke-linejoin="miter" fill="none" />
		<path d="M 65.4 56.4 L 79.4 56.4" stroke="rgb(0%, 48.24%, 100%)" stroke-width="1.0" stroke-linecap="square" stroke-linejoin="miter" fill="none" />
		<rect x="51.4" y="53.571" width="11.2" height="5.6" rx="0.7" ry="0.7" fill="rgb(0%, 24.12%, 50%)" stroke="none" />
		<rect x="51.4" y="53.571" width="11.2" height="5.6" rx="0.7" ry="0.7" stroke="rgb(0%, 48.24%, 100%)" stroke-width="1.0" stroke-linecap="square" stroke-linejoin="miter" fill="none" />
		<path d="M 48.6 69.0 L 79.4 69.0" stroke="rgb(0%, 48.24%, 100%)" stroke-width="1.0" stroke-linecap="square" stroke-linejoin="miter" fill="none" />
	</g>

</svg>
