<?xml version="1.0" standalone="no"?>
<!DOCTYPE svg PUBLIC "-//W3C//DTD SVG 1.1//EN" "http://www.w3.org/Graphics/SVG/1.1/DTD/svg11.dtd">
<svg xmlns="http://www.w3.org/2000/svg" version="1.1" width="120.0" height="100.0">

	<metadata>
		<rdf:RDF xmlns:rdf = "http://www.w3.org/1999/02/22-rdf-syntax-ns#" xmlns:rdfs = "http://www.w3.org/2000/01/rdf-schema#" xmlns:dc = "http://purl.org/dc/elements/1.1/">
			<rdf:Description rdf:about="http://likethought.com/opacity/">
				<dc:title>New Icon</dc:title>
				<dc:creator>Michael Sweet</dc:creator>
				<dc:rights>Copyright 2017 Michael Sweet</dc:rights>
				<dc:description></dc:description>
				<dc:format>image/svg+xml</dc:format>
				<dc:language>en</dc:language>
			</rdf:Description>
		</rdf:RDF>
	</metadata>
	<g>
		<title>Mascot</title>
		<path d="M 14.693 14.473 L 11.993 41.673 L 24.42 49.151 L 27.493 17.373 L 14.693 12.373" stroke="rgb(91.76%, 91.76%, 91.76%)" stroke-width="1.0" stroke-linecap="square" stroke-linejoin="miter" fill="none" />
		<path d="M 9.209 48.987 L 22.693 56.673 L 61.593 48.173 L 61.593 50.073" stroke="rgb(91.76%, 91.76%, 91.76%)" stroke-width="1.0" stroke-linecap="square" stroke-linejoin="miter" fill="none" />
		<path d="M 24.834 49.358 L 57.493 46.573 L 60.793 17.373 L 27.493 17.373" stroke="rgb(91.76%, 91.76%, 91.76%)" stroke-width="1.0" stroke-linecap="square" stroke-linejoin="miter" fill="none" />
		<path d="M 60.793 17.373 L 38.177 12.813 L 17.687 12.165" stroke="rgb(91.76%, 91.76%, 91.76%)" stroke-width="1.0" stroke-linecap="square" stroke-linejoin="miter" fill="none" />
		<path d="M 7.5 60.565 L 22.976 71.089 L 57.211 62.529" stroke="rgb(91.76%, 91.76%, 91.76%)" stroke-width="1.0" stroke-linecap="square" stroke-linejoin="miter" fill="none" />
		<path d="M 15.608 63.8 L 29.867 63.8" stroke="rgb(91.76%, 91.76%, 91.76%)" stroke-width="1.0" stroke-linecap="square" stroke-linejoin="miter" fill="none" transform="translate(22.738, 63.8) rotate(88.838) translate(-22.738, -63.8)" />
		<path d="M 30.808 20.113 L 28.147 45.756 L 54.569 43.477 L 56.914 20.025 L 30.808 20.113 Z" fill="rgb(100%, 100%, 100%)" fill-opacity="0.199" stroke="none" />
		<path d="M 30.808 20.113 L 28.147 45.756 L 54.569 43.477 L 56.914 20.025 L 30.808 20.113 Z" stroke="rgb(91.76%, 91.76%, 91.76%)" stroke-width="1.0" stroke-linecap="square" stroke-linejoin="miter" fill="none" />
		<path d="M 33.033 27.972 L 39.817 27.972" stroke="rgb(91.76%, 91.76%, 91.76%)" stroke-width="1.0" stroke-linecap="square" stroke-linejoin="miter" fill="none" transform="translate(36.425, 27.972) rotate(-22.558) translate(-36.425, -27.972)" />
		<path d="M 46.709 28.406 L 52.702 28.406" stroke="rgb(91.76%, 91.76%, 91.76%)" stroke-width="1.0" stroke-linecap="square" stroke-linejoin="miter" fill="none" transform="translate(49.706, 28.406) rotate(20.17) translate(-49.706, -28.406)" />
		<path d="M 33.932 38.491 L 35.963 40.617 L 37.762 41.86 L 39.391 42.699 L 40.775 42.844 L 43.517 42.983 L 45.168 42.729 L 46.572 42.221 L 48.323 41.076 L 49.838 39.734 L 51.318 37.739" stroke="rgb(91.76%, 91.76%, 91.76%)" stroke-width="1.0" stroke-linecap="square" stroke-linejoin="miter" fill="none" />
		<path d="M 33.022 60.252 L 34.067 60.0 C 34.008 59.597 33.884 59.258 33.693 58.985 C 33.502 58.712 33.264 58.503 32.978 58.359 C 32.692 58.215 32.366 58.132 32.0 58.11 C 31.632 58.088 31.244 58.126 30.833 58.225 C 30.232 58.369 29.698 58.606 29.233 58.934 C 28.767 59.262 28.378 59.65 28.067 60.099 C 27.755 60.548 27.518 61.043 27.357 61.584 C 27.196 62.125 27.115 62.682 27.115 63.254 C 27.115 63.826 27.19 64.343 27.341 64.806 C 27.491 65.268 27.716 65.647 28.017 65.941 C 28.318 66.236 28.695 66.433 29.15 66.533 C 29.605 66.632 30.136 66.609 30.745 66.463 C 31.75 66.222 32.542 65.757 33.121 65.068 C 33.7 64.379 34.041 63.527 34.144 62.512 L 33.099 62.763 C 33.077 63.091 33.011 63.408 32.901 63.713 C 32.791 64.018 32.639 64.294 32.445 64.543 C 32.25 64.791 32.019 65.004 31.752 65.182 C 31.484 65.36 31.178 65.49 30.833 65.573 C 30.364 65.686 29.96 65.695 29.623 65.6 C 29.286 65.505 29.009 65.335 28.793 65.089 C 28.576 64.844 28.417 64.534 28.314 64.159 C 28.211 63.784 28.16 63.373 28.16 62.926 C 28.16 62.515 28.211 62.107 28.314 61.701 C 28.417 61.295 28.576 60.917 28.793 60.568 C 29.009 60.22 29.284 59.917 29.618 59.661 C 29.951 59.405 30.353 59.22 30.822 59.108 C 31.372 58.976 31.847 59.001 32.247 59.184 C 32.646 59.366 32.905 59.722 33.022 60.252 L 33.022 60.252 Z M 41.712 60.816 L 41.712 55.8 L 40.667 56.051 L 40.667 61.067 C 40.667 61.771 40.493 62.346 40.145 62.793 C 39.796 63.24 39.288 63.543 38.621 63.703 C 37.917 63.872 37.378 63.82 37.004 63.547 C 36.63 63.274 36.443 62.785 36.443 62.081 L 36.443 57.065 L 35.398 57.316 L 35.398 62.332 C 35.398 63.381 35.682 64.077 36.251 64.421 C 36.819 64.765 37.609 64.815 38.621 64.572 C 39.611 64.335 40.374 63.9 40.909 63.27 C 41.444 62.639 41.712 61.821 41.712 60.816 L 41.712 60.816 Z M 44.429 58.91 L 44.429 56.028 L 46.475 55.537 C 47.069 55.394 47.504 55.413 47.779 55.592 C 48.054 55.772 48.191 56.096 48.191 56.566 C 48.191 57.035 48.054 57.427 47.779 57.743 C 47.504 58.058 47.069 58.283 46.475 58.419 L 44.429 58.91 Z M 43.384 55.399 L 43.384 63.253 L 44.429 63.002 L 44.429 59.79 L 46.827 59.214 C 47.619 59.031 48.219 58.686 48.626 58.177 C 49.033 57.669 49.236 57.048 49.236 56.315 C 49.236 55.582 49.033 55.06 48.626 54.751 C 48.219 54.442 47.619 54.382 46.827 54.572 L 43.384 55.399 Z M 55.055 54.896 L 56.045 54.658 C 56.03 54.229 55.948 53.877 55.798 53.601 C 55.647 53.326 55.442 53.116 55.182 52.974 C 54.921 52.831 54.619 52.753 54.274 52.74 C 53.929 52.728 53.555 52.77 53.152 52.867 C 52.793 52.953 52.443 53.083 52.102 53.256 C 51.761 53.43 51.456 53.642 51.189 53.894 C 50.921 54.145 50.706 54.435 50.545 54.763 C 50.384 55.092 50.303 55.454 50.303 55.85 C 50.303 56.209 50.375 56.491 50.518 56.695 C 50.661 56.899 50.851 57.047 51.09 57.14 C 51.328 57.234 51.597 57.29 51.898 57.309 C 52.199 57.329 52.505 57.336 52.817 57.331 C 53.128 57.326 53.434 57.32 53.735 57.314 C 54.036 57.308 54.305 57.329 54.544 57.378 C 54.782 57.427 54.973 57.519 55.116 57.653 C 55.259 57.788 55.33 57.991 55.33 58.262 C 55.33 58.548 55.271 58.797 55.154 59.008 C 55.037 59.22 54.883 59.401 54.692 59.554 C 54.501 59.706 54.287 59.832 54.049 59.934 C 53.81 60.035 53.574 60.114 53.339 60.17 C 53.046 60.24 52.76 60.272 52.481 60.266 C 52.202 60.259 51.959 60.204 51.75 60.1 C 51.541 59.997 51.372 59.841 51.244 59.633 C 51.115 59.426 51.051 59.157 51.051 58.827 L 50.061 59.065 C 50.061 59.542 50.147 59.933 50.32 60.24 C 50.492 60.547 50.727 60.777 51.024 60.929 C 51.321 61.082 51.665 61.166 52.058 61.182 C 52.45 61.197 52.866 61.152 53.306 61.047 C 53.665 60.961 54.027 60.832 54.39 60.66 C 54.753 60.489 55.081 60.274 55.374 60.017 C 55.667 59.759 55.908 59.46 56.095 59.118 C 56.282 58.776 56.375 58.396 56.375 57.978 C 56.375 57.589 56.304 57.284 56.161 57.061 C 56.018 56.839 55.827 56.672 55.589 56.561 C 55.35 56.449 55.081 56.38 54.78 56.353 C 54.479 56.327 54.173 56.314 53.862 56.315 C 53.55 56.317 53.244 56.323 52.943 56.332 C 52.642 56.342 52.373 56.328 52.135 56.29 C 51.896 56.252 51.706 56.175 51.563 56.059 C 51.42 55.943 51.348 55.764 51.348 55.522 C 51.348 55.265 51.398 55.039 51.497 54.843 C 51.596 54.647 51.728 54.477 51.893 54.335 C 52.058 54.193 52.246 54.074 52.459 53.979 C 52.672 53.884 52.888 53.81 53.108 53.757 C 53.651 53.627 54.096 53.647 54.445 53.816 C 54.793 53.985 54.996 54.345 55.055 54.896 L 55.055 54.896 Z M 56.782 60.036" fill="rgb(91.98%, 91.98%, 91.98%)" stroke="none" />
		<path d="M 76.415 50.369 L 85.893 43.868 L 70.252 50.674 L 89.056 55.489 L 103.478 47.4" stroke="rgb(91.76%, 91.76%, 91.76%)" stroke-width="1.0" stroke-linecap="square" stroke-linejoin="miter" fill="none" />
		<path d="M 83.777 42.513 L 57.871 51.982 L 58.018 78.321 L 90.942 88.15 L 90.793 60.276 L 59.783 52.959" stroke="rgb(91.76%, 91.76%, 91.76%)" stroke-width="1.0" stroke-linecap="square" stroke-linejoin="miter" fill="none" />
		<path d="M 78.789 78.091 L 57.948 72.216" stroke="rgb(91.76%, 91.76%, 91.76%)" stroke-width="1.0" stroke-linecap="square" stroke-linejoin="miter" fill="none" />
		<path d="M 92.235 59.544 L 112.158 47.334 L 112.328 71.462 L 92.566 87.401" stroke="rgb(91.76%, 91.76%, 91.76%)" stroke-width="1.0" stroke-linecap="square" stroke-linejoin="miter" fill="none" />
		<path d="M 81.519 59.68 L 81.349 66.993 L 81.016 85.147" stroke="rgb(91.76%, 91.76%, 91.76%)" stroke-width="1.0" stroke-linecap="square" stroke-linejoin="miter" fill="none" />
		<path d="M 90.548 69.209 L 81.57 66.952" stroke="rgb(91.76%, 91.76%, 91.76%)" stroke-width="1.0" stroke-linecap="square" stroke-linejoin="miter" fill="none" />
		<path d="M 83.257 61.068 L 88.152 62.228 L 88.163 64.631 L 83.278 63.324 L 83.257 61.068 Z" fill="rgb(100%, 100%, 100%)" fill-opacity="0.305" stroke="none" />
		<path d="M 83.257 61.068 L 88.152 62.228 L 88.163 64.631 L 83.278 63.324 L 83.257 61.068 Z" stroke="rgb(91.76%, 91.76%, 91.76%)" stroke-width="1.0" stroke-linecap="square" stroke-linejoin="miter" fill="none" />
		<path d="M 89.073 42.648 L 94.039 40.426 L 108.499 43.229 L 102.892 45.655 L 88.426 55.17 L 76.075 52.05 L 89.073 42.648 Z" fill="rgb(100%, 100%, 100%)" fill-opacity="0.199" stroke="none" />
		<path d="M 89.073 42.648 L 94.039 40.426 L 108.499 43.229 L 102.892 45.655 L 88.426 55.17 L 76.075 52.05 L 89.073 42.648 Z" stroke="rgb(91.76%, 91.76%, 91.76%)" stroke-width="1.0" stroke-linecap="square" stroke-linejoin="miter" fill="none" />
		<path d="M 93.148 42.822 L 99.898 42.822" stroke="rgb(91.76%, 91.76%, 91.76%)" stroke-width="1.0" stroke-linecap="square" stroke-linejoin="miter" fill="none" transform="translate(96.523, 42.822) rotate(9.361) translate(-96.523, -42.822)" />
		<path d="M 89.741 44.502 L 97.43 44.502" stroke="rgb(91.76%, 91.76%, 91.76%)" stroke-width="1.0" stroke-linecap="square" stroke-linejoin="miter" fill="none" transform="translate(93.585, 44.502) rotate(9.423) translate(-93.585, -44.502)" />
		<path d="M 88.037 46.332 L 95.883 46.332" stroke="rgb(91.76%, 91.76%, 91.76%)" stroke-width="1.0" stroke-linecap="square" stroke-linejoin="miter" fill="none" transform="translate(91.96, 46.332) rotate(9.679) translate(-91.96, -46.332)" />
		<path d="M 85.797 48.04 L 93.718 48.04" stroke="rgb(91.76%, 91.76%, 91.76%)" stroke-width="1.0" stroke-linecap="square" stroke-linejoin="miter" fill="none" transform="translate(89.757, 48.04) rotate(12.653) translate(-89.757, -48.04)" />
		<path d="M 82.965 50.11 L 89.963 50.11" stroke="rgb(91.76%, 91.76%, 91.76%)" stroke-width="1.0" stroke-linecap="square" stroke-linejoin="miter" fill="none" transform="translate(86.464, 50.11) rotate(15.542) translate(-86.464, -50.11)" />
	</g>

</svg>
